<svg id="bootstrap-svgrepo-com" xmlns="http://www.w3.org/2000/svg" width="60.499" height="60.5" viewBox="0 0 60.499 60.5">
  <path id="Path_65476" data-name="Path 65476" d="M0,52.7a7.8,7.8,0,0,0,7.8,7.8H52.7a7.8,7.8,0,0,0,7.8-7.8V7.8A7.8,7.8,0,0,0,52.7,0H7.8A7.8,7.8,0,0,0,0,7.8Z" fill="#563d7c"/>
  <path id="Path_65477" data-name="Path 65477" d="M80.13,65.327V56.759h7.541a11.742,11.742,0,0,1,2.078.18,5.191,5.191,0,0,1,1.77.641,3.416,3.416,0,0,1,1.231,1.283,4.259,4.259,0,0,1,.462,2.1A3.875,3.875,0,0,1,91.827,64.3a5.789,5.789,0,0,1-3.54,1.026ZM72.075,50.5V87.13H89.826a18.728,18.728,0,0,0,4.8-.616,12.829,12.829,0,0,0,4.156-1.9,9.35,9.35,0,0,0,2.9-3.309,11.2,11.2,0,0,0-.59-10.671,8.8,8.8,0,0,0-5.054-3.412,9.128,9.128,0,0,0,3.72-3.027,8.023,8.023,0,0,0,1.257-4.617,9.825,9.825,0,0,0-.847-4.309,7.039,7.039,0,0,0-2.386-2.8,10.3,10.3,0,0,0-3.694-1.513,22.813,22.813,0,0,0-4.771-.462ZM80.13,80.871V70.816H88.9a6.788,6.788,0,0,1,4.207,1.206,4.736,4.736,0,0,1,1.59,4.027,5.034,5.034,0,0,1-.487,2.36A3.871,3.871,0,0,1,92.9,79.871a5.54,5.54,0,0,1-1.9.77,10.752,10.752,0,0,1-2.257.231Z" transform="translate(-55.042 -38.566)" fill="#fff"/>
</svg>
