<svg xmlns="http://www.w3.org/2000/svg" width="44.685" height="61.33" viewBox="0 0 44.685 61.33">
  <g id="firebase-svgrepo-com" transform="translate(-5.8 -2)">
    <path id="Path_65462" data-name="Path 65462" d="M5.8,51.5l.372-.519L23.74,17.659l.037-.353L16.034,2.762a1.437,1.437,0,0,0-2.688.453Z" transform="translate(0 0)" fill="#ffc24a"/>
    <path id="Path_65463" data-name="Path 65463" d="M5.9,50.971l.28-.548,17.386-32.98-7.724-14.6a1.314,1.314,0,0,0-2.482.451Z" transform="translate(0.119 0.139)" fill="#ffa712"/>
    <path id="Path_65464" data-name="Path 65464" d="M19.683,23.627l5.765-5.914-5.767-11a1.485,1.485,0,0,0-2.618,0l-3.082,5.875v.5Z" transform="translate(9.739 4.68)" fill="#f4bd62"/>
    <path id="Path_65465" data-name="Path 65465" d="M19.549,23.271l5.605-5.739L19.549,6.843a1.29,1.29,0,0,0-2.353-.1l-3.1,5.978-.092.3Z" transform="translate(9.77 4.795)" fill="#ffa50e"/>
    <path id="Path_65466" data-name="Path 65466" d="M5.8,43.226l.169-.171.611-.248L29.056,20.416l.285-.775L23.735,8.956Z" transform="translate(0.002 8.28)" fill="#f6820c"/>
    <path id="Path_65467" data-name="Path 65467" d="M30.14,56,50.485,44.651,44.672,8.879a1.391,1.391,0,0,0-2.355-.758L5.8,44.7,26.024,55.993a4.221,4.221,0,0,0,4.114,0" transform="translate(0 6.802)" fill="#fde068"/>
    <path id="Path_65468" data-name="Path 65468" d="M50.18,44.464l-5.765-35.5A1.22,1.22,0,0,0,42.3,8.188L5.9,44.541l20,11.171a4.188,4.188,0,0,0,4.081,0Z" transform="translate(0.119 6.895)" fill="#fcca3f"/>
    <path id="Path_65469" data-name="Path 65469" d="M30.14,35.746a4.221,4.221,0,0,1-4.114,0L5.966,24.623l-.166.171L26.024,36.086a4.221,4.221,0,0,0,4.114,0L50.485,24.744l-.05-.307Z" transform="translate(0 26.71)" fill="#eeab37"/>
  </g>
</svg>
