<svg xmlns="http://www.w3.org/2000/svg" width="45" height="60" viewBox="0 0 45 60">
  <g id="java-svgrepo-com_2_" data-name="java-svgrepo-com (2)" transform="translate(-4)">
    <path id="Path_65342" data-name="Path 65342" d="M19.678,15.826C32.03,6.236,25.691,0,25.691,0c.944,9.914-10.207,12.255-13.2,19.067-2.039,4.649,1.4,8.719,7.179,13.849a20.675,20.675,0,0,0-2.1-3.358C14.854,25.746,12.018,21.775,19.678,15.826Z" transform="translate(6.915 0)" fill="#e76f00"/>
    <path id="Path_65343" data-name="Path 65343" d="M18,29.3s3.716-3,.773-6.33C8.8,11.666,29.685,6.536,29.685,6.536c-12.753,6.144-10.849,9.79-7.644,14.221C25.473,25.507,18,29.3,18,29.3Z" transform="translate(10.565 5.719)" fill="#e76f00"/>
    <path id="Path_65344" data-name="Path 65344" d="M23.044,28.819c11.447-5.85,6.155-11.471,2.46-10.714a8.662,8.662,0,0,0-1.309.346,2.079,2.079,0,0,1,.978-.742c7.309-2.527,12.929,7.452-2.359,11.4A.982.982,0,0,0,23.044,28.819Z" transform="translate(16.463 15.142)" fill="#5382a1"/>
    <path id="Path_65345" data-name="Path 65345" d="M13.4,21.149c-7.162-.941,3.927-3.531,3.927-3.531a21.288,21.288,0,0,0-9.6,2.232c-6.263,2.979,15.492,4.334,26.753,1.422A19.577,19.577,0,0,1,37.266,19.8s-4.608.809-9.2,1.19A84.7,84.7,0,0,1,13.4,21.149Z" transform="translate(2.287 15.408)" fill="#5382a1"/>
    <path id="Path_65346" data-name="Path 65346" d="M13.862,23.554c-3.994-.406-1.379-2.31-1.379-2.31-10.335,3.373,5.75,7.2,20.192,3.046a7.246,7.246,0,0,1-2.511-1.505A50.1,50.1,0,0,1,13.862,23.554Z" transform="translate(4.55 18.588)" fill="#5382a1"/>
    <path id="Path_65347" data-name="Path 65347" d="M14.758,26.532c-3.991-.451-1.659-1.784-1.659-1.784-9.382,2.578,5.706,7.9,17.651,2.869A22.136,22.136,0,0,1,27.392,26,35.5,35.5,0,0,1,14.758,26.532Z" transform="translate(5.395 21.654)" fill="#5382a1"/>
    <path id="Path_65348" data-name="Path 65348" d="M45.135,27.576s1.725,1.4-1.9,2.479c-6.895,2.054-28.7,2.674-34.752.082-2.177-.931,1.906-2.224,3.19-2.5a8.416,8.416,0,0,1,2.1-.232C11.356,25.733-1.872,30.7,7.058,32.126,31.412,36.01,51.452,30.377,45.135,27.576Z" transform="translate(0 23.685)" fill="#5382a1"/>
    <path id="Path_65349" data-name="Path 65349" d="M45.214,28.968c-.4,5.113-17.273,6.188-28.261,5.5-7.168-.452-8.6-1.582-8.626-1.6a91.849,91.849,0,0,0,27.806-.421C44.446,30.906,45.214,28.968,45.214,28.968Z" transform="translate(3.786 25.347)" fill="#5382a1"/>
  </g>
</svg>
