<svg xmlns="http://www.w3.org/2000/svg" width="58.227" height="59.942" viewBox="0 0 58.227 59.942">
  <path id="laravel-svgrepo-com" d="M74.194,29.561a.926.926,0,0,1,.033.244V42.671a.939.939,0,0,1-.473.815L62.957,49.7V62.026a.941.941,0,0,1-.469.813L39.946,75.817a1.15,1.15,0,0,1-.164.067c-.022.007-.042.02-.064.027a.944.944,0,0,1-.48,0c-.027-.007-.049-.022-.075-.031a1.026,1.026,0,0,1-.155-.064L16.471,62.84A.941.941,0,0,1,16,62.026v-38.6a.929.929,0,0,1,.033-.246c.007-.027.024-.051.033-.078a1.019,1.019,0,0,1,.06-.146c.018-.031.044-.055.064-.084a1.237,1.237,0,0,1,.084-.109.892.892,0,0,1,.093-.071.749.749,0,0,1,.1-.08L27.74,16.125a.941.941,0,0,1,.937,0l11.271,6.489a16.356,16.356,0,0,0,.195.149.953.953,0,0,1,.086.111.923.923,0,0,1,.064.084,1.028,1.028,0,0,1,.062.146.607.607,0,0,1,.031.08.946.946,0,0,1,.035.244v24.11l9.389-5.408V29.805a.946.946,0,0,1,.035-.244.528.528,0,0,1,.033-.08,1.02,1.02,0,0,1,.06-.146c.018-.031.044-.055.064-.084a.964.964,0,0,1,.084-.109,1.089,1.089,0,0,1,.091-.069,1.019,1.019,0,0,1,.1-.082L61.55,22.5a.939.939,0,0,1,.937,0l11.271,6.489c.04.024.069.055.106.08s.062.044.091.071.055.073.084.109.045.055.062.084a.853.853,0,0,1,.062.146.617.617,0,0,1,.033.08ZM72.349,42.129V31.43L68.4,33.7l-5.448,3.137v10.7l9.393-5.408ZM61.079,61.484V50.778L55.72,53.838l-15.3,8.734V73.381l20.662-11.9Zm-43.2-36.432V61.484L38.539,73.379v-10.8L27.745,56.466l0,0-.005,0a.994.994,0,0,1-.1-.078.817.817,0,0,1-.089-.067l0,0a5.311,5.311,0,0,1-.147-.189l0,0A.676.676,0,0,1,27.347,56a.544.544,0,0,1-.045-.106,1.149,1.149,0,0,1-.018-.138.7.7,0,0,1-.015-.106V30.458l-5.446-3.137-3.945-2.269Zm10.332-7.029-9.389,5.4,9.387,5.4,9.389-5.4-9.389-5.4Zm4.884,33.73,5.446-3.135V25.052L34.6,27.321l-5.448,3.137V54.024l3.945-2.271ZM62.018,24.4l-9.389,5.4,9.389,5.4,9.385-5.4Zm-.941,12.437L55.629,33.7,51.686,31.43v10.7l5.446,3.135,3.945,2.273Zm-21.6,24.11,13.771-7.861,6.884-3.93-9.382-5.4-10.8,6.219L30.1,55.643l9.373,5.3Z" transform="translate(-16 -16)" fill="#ff2d20" fill-rule="evenodd"/>
</svg>
