<svg xmlns="http://www.w3.org/2000/svg" width="60" height="60" viewBox="0 0 60 60">
  <g id="adobe-illustrator-svgrepo-com" transform="translate(-2 -2)">
    <path id="Path_18658" data-name="Path 18658" d="M2,23.714c0-7.6,0-11.4,1.479-14.3A13.572,13.572,0,0,1,9.41,3.479C12.313,2,16.114,2,23.714,2H40.286c7.6,0,11.4,0,14.3,1.479A13.572,13.572,0,0,1,60.521,9.41C62,12.313,62,16.114,62,23.714V40.286c0,7.6,0,11.4-1.479,14.3a13.572,13.572,0,0,1-5.931,5.931C51.687,62,47.887,62,40.286,62H23.714c-7.6,0-11.4,0-14.3-1.479A13.572,13.572,0,0,1,3.479,54.59C2,51.687,2,47.887,2,40.286Z" transform="translate(0 0)" fill="#300"/>
    <path id="Path_18659" data-name="Path 18659" d="M24.471,30.606h-9.3l-1.892,6.027A.48.48,0,0,1,12.8,37H8.089q-.4,0-.282-.454l8.05-23.778q.121-.372.242-.846a9.061,9.061,0,0,0,.161-1.672.256.256,0,0,1,.282-.289h6.4q.281,0,.322.206L32.4,36.592q.121.413-.241.413H26.926a.376.376,0,0,1-.4-.289Zm-7.849-5.2h6.36c-1.045-3.57-2.224-7.094-3.18-10.692C18.771,18.317,17.646,21.907,16.622,25.4Z" transform="translate(6.605 9.1)" fill="#ff9a00"/>
    <path id="Path_18660" data-name="Path 18660" d="M23.437,15.441a2.856,2.856,0,0,1-1.2-.212,2.915,2.915,0,0,1-1.012-.7,3.284,3.284,0,0,1-.652-1.09,3.342,3.342,0,0,1-.194-1.263,3.1,3.1,0,0,1,.215-1.245,3.037,3.037,0,0,1,.691-1.047,3.1,3.1,0,0,1,1.03-.673A3.04,3.04,0,0,1,23.518,9a2.952,2.952,0,0,1,2.274.888,3.2,3.2,0,0,1,.635,1.061,3.261,3.261,0,0,1,.19,1.23,3.3,3.3,0,0,1-.2,1.267,3.237,3.237,0,0,1-.666,1.086,3.083,3.083,0,0,1-1.064.7A3.019,3.019,0,0,1,23.437,15.441ZM20.66,37.692V17.959c0-.248.107-.372.322-.372h4.951q.321,0,.322.372V37.692q0,.413-.322.413H21.022Q20.66,38.1,20.66,37.692Z" transform="translate(21.001 8)" fill="#ff9a00"/>
  </g>
</svg>
