<svg xmlns="http://www.w3.org/2000/svg" width="116.491" height="59.496" viewBox="0 0 116.491 59.496">
  <g id="materialize-seeklogo" transform="translate(-0.02 -0.248)">
    <g id="Group_151313" data-name="Group 151313" transform="translate(0.031 0.293)">
      <path id="Path_65482" data-name="Path 65482" d="M44.514,2.07A3.972,3.972,0,0,1,46.27.328,5.591,5.591,0,0,1,47.239.3h15.9a5.262,5.262,0,0,0-1.222,1.334A21.4,21.4,0,0,0,60.05,5.947a139.076,139.076,0,0,0-3.4,13.738c-.435,2.093-.857,4.2-1.25,6.293-1.208,6.855-2.458,13.7-4.018,20.481a73.632,73.632,0,0,1-2.655,9.285,9.559,9.559,0,0,1-2.079,3.512c-.239.211-.478.478-.815.435H31.787c-.955-.028-1.9.056-2.852-.042a5.574,5.574,0,0,0,1.559-1.784,34.1,34.1,0,0,0,2.346-6.349c.983-3.484,1.77-7.009,2.514-10.535.464-2.318,1.011-4.622,1.349-6.953.379-2.6.955-5.169,1.419-7.754.73-3.807,1.5-7.614,2.36-11.392.688-2.95,1.391-5.886,2.332-8.766A22.22,22.22,0,0,1,44.514,2.07Z" transform="translate(-15.787 -0.293)" fill="#eb7077" stroke="#eb7077" stroke-width="0.094"/>
      <path id="Path_65483" data-name="Path 65483" d="M94.854.3c.408,0,.815-.014,1.222,0a4.663,4.663,0,0,1,2.079,2.177A27.256,27.256,0,0,1,99.6,5.822a134.523,134.523,0,0,1,3.315,13.261q1.222,5.984,2.318,12.01c.056.211-.014.506.267.562-1.012,5.282-2.009,10.578-3.273,15.817a69.538,69.538,0,0,1-2.458,8.358,9.116,9.116,0,0,1-2.332,3.821c-.758.169-1.306-.407-1.77-.927a13.532,13.532,0,0,1-1.77-3.442,101.264,101.264,0,0,1-3.54-13.331c-.744-3.5-1.4-7.024-2.093-10.535-.309-1.784-.73-3.54-.969-5.324-.042-.028-.14-.084-.183-.112.393-2.093.815-4.2,1.25-6.293a139.078,139.078,0,0,1,3.4-13.738,21.4,21.4,0,0,1,1.868-4.313A5.262,5.262,0,0,1,94.854.3Z" transform="translate(-47.501 -0.294)" fill="#f6a2ad" stroke="#f6a2ad" stroke-width="0.094"/>
      <path id="Path_65484" data-name="Path 65484" d="M124.8,2.735A4.413,4.413,0,0,1,127.019.319C132.6.291,138.173.3,143.75.3A7.483,7.483,0,0,0,142.331,2a31.23,31.23,0,0,0-2.36,6.209c-1.658,5.844-2.824,11.814-3.933,17.784-1.025,5.886-2.121,11.772-3.371,17.629-.646,2.95-1.321,5.886-2.177,8.794a28.689,28.689,0,0,1-2.023,5.282,4.487,4.487,0,0,1-1.77,1.981c-5.324.042-10.662,0-15.986.014a6.4,6.4,0,0,1-.9-.042,9.116,9.116,0,0,0,2.332-3.821,69.538,69.538,0,0,0,2.458-8.358c1.264-5.24,2.261-10.536,3.273-15.817,1.222-6.813,2.5-13.626,4.13-20.355A46.629,46.629,0,0,1,124.8,2.735Z" transform="translate(-59.873 -0.298)" fill="#eb7077" stroke="#eb7077" stroke-width="0.094"/>
      <path id="Path_65485" data-name="Path 65485" d="M175.177.3c.449,0,.913-.014,1.362,0a5.044,5.044,0,0,1,1.714,1.686,20.665,20.665,0,0,1,1.728,3.905,112.687,112.687,0,0,1,2.838,10.943c1.068,4.959,1.995,9.946,2.908,14.932.225,1.194.449,2.4.59,3.61l.211.211a8.84,8.84,0,0,0-.983,2.346,66.469,66.469,0,0,0-1.953,8.738,47.049,47.049,0,0,1-1.615,6.813,15,15,0,0,1-2.248,4.649,5.009,5.009,0,0,1-1.952,1.5c-1.166.126-1.855-1-2.416-1.826a31.119,31.119,0,0,1-2.472-6.532c-2.219-8.217-3.666-16.632-5.225-24.99a.37.37,0,0,0-.2-.295c1.11-5.97,2.276-11.94,3.933-17.784A31.231,31.231,0,0,1,173.758,2,7.483,7.483,0,0,1,175.177.3Z" transform="translate(-91.3 -0.294)" fill="#f6a2ad" stroke="#f6a2ad" stroke-width="0.094"/>
      <path id="Path_65486" data-name="Path 65486" d="M.031,70.461c.365-.028.73-.084,1.11-.084H16.452a6.5,6.5,0,0,1,1.939.309,5.523,5.523,0,0,1,2.29,1.756c.07-.042.2-.155.267-.211-.337,2.332-.885,4.636-1.349,6.953-.744,3.526-1.531,7.052-2.514,10.535a34.1,34.1,0,0,1-2.346,6.349,5.574,5.574,0,0,1-1.559,1.784c-.239.042-.421-.126-.618-.253a5.235,5.235,0,0,1-1.447-1.812C9.19,91.406,8.979,86.559,7.785,81.98a32.193,32.193,0,0,0-2.444-6.673,12.373,12.373,0,0,0-2.585-3.442A7.014,7.014,0,0,0,.031,70.461Z" transform="translate(-0.031 -38.496)" fill="#f6a2ad" stroke="#f6a2ad" stroke-width="0.094"/>
      <path id="Path_65487" data-name="Path 65487" d="M200.12,71.88a4.582,4.582,0,0,1,3.54-1.573h11.519c1.6.028,3.217-.056,4.818.042a15.628,15.628,0,0,1-1.559.716,9.309,9.309,0,0,0-4.214,3.807,24.537,24.537,0,0,0-2.515,8.737c-.449,2.95-.435,6-1.391,8.864a10.758,10.758,0,0,1-3.329,5.352c-5.282.056-10.564.014-15.831.028a4.952,4.952,0,0,1-1.025-.056,5.009,5.009,0,0,0,1.952-1.5,15,15,0,0,0,2.248-4.649,47.049,47.049,0,0,0,1.615-6.813,66.47,66.47,0,0,1,1.953-8.738,8.84,8.84,0,0,1,.983-2.346A11.96,11.96,0,0,1,200.12,71.88Z" transform="translate(-103.656 -38.454)" fill="#eb7077" stroke="#eb7077" stroke-width="0.094"/>
    </g>
  </g>
</svg>
