<svg xmlns="http://www.w3.org/2000/svg" width="90" height="61.122" viewBox="0 0 90 61.122">
  <g id="Group_151312" data-name="Group 151312" transform="translate(-1488.117 -5130.781)">
    <path id="Path_65459" data-name="Path 65459" d="M29.448,103.412H25.975q-.184-8.793-1.014-16.536H24.93l-5.287,16.536H17L11.743,86.876h-.03q-.585,7.437-.737,16.536H7.81q.306-11.065,1.536-20.748h4.3L18.66,97.91h.031l5.04-15.246h4.118q1.353,11.342,1.6,20.748M44.508,88.1q-2.121,11.509-5.595,16.728-2.706,4.018-5.932,4.02a5.831,5.831,0,0,1-2.121-.517v-1.85a10.213,10.213,0,0,0,1.444.093,3.49,3.49,0,0,0,2.429-.831,3.031,3.031,0,0,0,1.105-2.274,15.128,15.128,0,0,0-.86-3.535L31.168,88.1H34.58l2.735,8.851a11.944,11.944,0,0,1,.768,4.212A57.817,57.817,0,0,0,41.219,88.1h3.289Z" transform="translate(1480.307 5083.051)" fill="#5d87a1"/>
    <path id="Path_65460" data-name="Path 65460" d="M109.793,103.261H99.928V82.513h3.318v18.194h6.546Zm-12.447.5-3.814-1.882a7.089,7.089,0,0,0,.953-.927q2.432-2.857,2.43-8.451,0-10.3-8.083-10.3a7.655,7.655,0,0,0-6.178,2.614q-2.43,2.859-2.429,8.422,0,5.471,2.151,8.02,1.968,2.306,5.934,2.307a9.561,9.561,0,0,0,2.716-.364l4.966,2.891ZM84.99,99.109q-1.26-2.027-1.26-6.514,0-7.836,4.764-7.839a4,4,0,0,1,3.657,1.874q1.258,2.03,1.261,6.455,0,7.9-4.764,7.9a3.989,3.989,0,0,1-3.658-1.876m-6.211-1.6a5.5,5.5,0,0,1-1.935,4.334,7.623,7.623,0,0,1-5.192,1.69,10.4,10.4,0,0,1-5.9-1.938l.892-1.782a10.1,10.1,0,0,0,4.454,1.229,4.679,4.679,0,0,0,2.936-.827,2.818,2.818,0,0,0,1.13-2.3c0-1.233-.86-2.286-2.437-3.169-1.454-.8-4.363-2.468-4.363-2.468A4.966,4.966,0,0,1,66,87.862a5.154,5.154,0,0,1,1.766-4.072,6.657,6.657,0,0,1,4.565-1.553,9.465,9.465,0,0,1,5.254,1.537l-.8,1.782a10.158,10.158,0,0,0-3.993-.86,3.558,3.558,0,0,0-2.456.769,2.571,2.571,0,0,0-.931,1.968c0,1.227.878,2.294,2.5,3.194,1.474.8,4.454,2.5,4.454,2.5a4.9,4.9,0,0,1,2.424,4.385" transform="translate(1461.248 5083.202)" fill="#f8981d"/>
    <path id="Path_65461" data-name="Path 65461" d="M120.948,58.59a11.585,11.585,0,0,0-4.864.7c-.376.15-.975.15-1.027.626.2.2.227.526.4.8a5.825,5.825,0,0,0,1.3,1.527c.525.4,1.053.8,1.606,1.152.975.6,2.08.954,3.03,1.556.554.35,1.1.8,1.658,1.178.272.2.447.526.8.652v-.076c-.177-.225-.227-.552-.4-.8l-.753-.726a11.932,11.932,0,0,0-2.606-2.531c-.8-.553-2.558-1.3-2.884-2.229l-.051-.051a9.987,9.987,0,0,0,1.73-.405c.853-.225,1.631-.174,2.506-.4.4-.1.8-.227,1.206-.351v-.226c-.454-.452-.777-1.052-1.254-1.478a33.38,33.38,0,0,0-4.136-3.084c-.778-.5-1.78-.826-2.608-1.254-.3-.151-.8-.225-.978-.476a10.213,10.213,0,0,1-1.029-1.931c-.725-1.378-1.429-2.906-2.054-4.363a27.113,27.113,0,0,0-1.279-2.857,25.285,25.285,0,0,0-9.7-9.375,12.023,12.023,0,0,0-3.207-1.029l-1.881-.1a9.966,9.966,0,0,1-1.154-.878c-1.431-.9-5.114-2.857-6.166-.276-.678,1.631,1,3.235,1.58,4.063a11.523,11.523,0,0,1,1.276,1.88c.176.426.226.878.4,1.329a30.027,30.027,0,0,0,1.3,3.36,11.963,11.963,0,0,0,.927,1.551c.2.278.552.4.628.854a7.193,7.193,0,0,0-.578,1.88,11.047,11.047,0,0,0,.729,8.423c.4.627,1.354,2.006,2.631,1.478,1.13-.451.88-1.88,1.2-3.132.074-.3.025-.5.176-.7v.049c.35.7.7,1.377,1.027,2.08a14.294,14.294,0,0,0,3.26,3.357c.6.454,1.076,1.229,1.829,1.507v-.075h-.05a2.808,2.808,0,0,0-.575-.5,12.174,12.174,0,0,1-1.3-1.5,32.289,32.289,0,0,1-2.806-4.564c-.4-.778-.752-1.629-1.078-2.406-.152-.3-.152-.752-.4-.9a9.377,9.377,0,0,0-1.2,1.7,14.18,14.18,0,0,0-.7,3.789l-.1.048c-.8-.2-1.076-1.027-1.38-1.728a10.858,10.858,0,0,1-.225-6.694c.174-.525.929-2.18.628-2.681-.151-.48-.653-.753-.928-1.131a10.191,10.191,0,0,1-.9-1.6c-.6-1.4-.9-2.958-1.551-4.361a13.506,13.506,0,0,0-1.254-1.932,12.42,12.42,0,0,1-1.381-1.955c-.125-.276-.3-.727-.1-1.027a.4.4,0,0,1,.351-.327c.325-.274,1.253.074,1.578.225A12.7,12.7,0,0,1,92.649,33.5c.351.252.727.728,1.178.854h.527c.8.174,1.7.048,2.457.275a16.138,16.138,0,0,1,3.61,1.729,22.244,22.244,0,0,1,7.819,8.575c.3.576.427,1.1.7,1.7.528,1.229,1.181,2.483,1.705,3.686a16.517,16.517,0,0,0,1.781,3.359c.375.526,1.882.8,2.558,1.078a17.683,17.683,0,0,1,1.729.7c.853.525,1.7,1.129,2.5,1.706.4.3,1.654.927,1.729,1.429M95.377,36.805a3.906,3.906,0,0,0-1.026.126v.05H94.4a8.18,8.18,0,0,0,.8,1.028c.2.4.377.8.575,1.2l.048-.05a1.409,1.409,0,0,0,.529-1.254,5.732,5.732,0,0,1-.3-.526c-.148-.251-.473-.376-.676-.577" transform="translate(1454.258 5100.175)" fill="#5d87a1"/>
  </g>
</svg>
