<svg xmlns="http://www.w3.org/2000/svg" width="55.714" height="60" viewBox="0 0 55.714 60">
  <g id="node-js-svgrepo-com_2_" data-name="node-js-svgrepo-com (2)" transform="translate(-3 -2)">
    <path id="Path_65340" data-name="Path 65340" d="M33.37,2.64a5.253,5.253,0,0,0-5.026,0Q16.907,8.952,5.469,15.262A4.613,4.613,0,0,0,3,19.29V44.713a4.647,4.647,0,0,0,2.564,4.065c2.19,1.165,4.318,2.449,6.548,3.537a9.6,9.6,0,0,0,8.406.226,6.342,6.342,0,0,0,3.054-5.763c.017-8.39,0-16.781.007-25.171a.664.664,0,0,0-.636-.762c-.974-.015-1.95-.009-2.924,0a.636.636,0,0,0-.7.641c-.013,8.336,0,16.675-.008,25.012a2.824,2.824,0,0,1-1.869,2.651c-2.567.9-9.894-3.858-9.894-3.858a.723.723,0,0,1-.413-.706q0-12.581,0-25.162a.775.775,0,0,1,.482-.781q11.4-6.274,22.794-12.561a.823.823,0,0,1,.9,0q11.4,6.276,22.8,12.557a.784.784,0,0,1,.479.784q0,12.579,0,25.161a.723.723,0,0,1-.408.715c-7.528,4.16-15.142,8.186-22.6,12.467-.325.187-.694.4-1.059.192-1.962-1.085-3.9-2.213-5.855-3.308a.644.644,0,0,0-.7-.041,26.445,26.445,0,0,1-2.708,1.235c-1.414.56-1.188.789.087,1.532q3.43,1.941,6.864,3.878a5.1,5.1,0,0,0,5.082.138q11.438-6.3,22.876-12.612a4.658,4.658,0,0,0,2.565-4.064V19.29a4.6,4.6,0,0,0-2.387-3.978Q44.851,8.971,33.37,2.64Z" transform="translate(0 0)" fill="#8cc84b"/>
    <path id="Path_65341" data-name="Path 65341" d="M32.727,12.038c-2.993-1.6-6.554-1.686-9.879-1.477a10.9,10.9,0,0,0-6.68,2.623,6.413,6.413,0,0,0-1.334,6.788,5.883,5.883,0,0,0,3.74,3.185,27.371,27.371,0,0,0,6.354,1.171,30.056,30.056,0,0,1,5.816.992c.771.255,1.669.646,1.905,1.485a2.927,2.927,0,0,1-.828,2.838c-2.562,2.028-9.689,1.717-12.22.121a4.288,4.288,0,0,1-1.644-3.031.674.674,0,0,0-.7-.658c-.972-.012-1.944-.009-2.915,0a.645.645,0,0,0-.71.559c-.2,5.254,4.625,7.544,9.152,8.048a25.313,25.313,0,0,0,7.776-.323,9.665,9.665,0,0,0,5.152-2.713,6.889,6.889,0,0,0,1.216-6.692,5.7,5.7,0,0,0-3.777-3.284,31.456,31.456,0,0,0-6.842-1.358c-2.914-.277-6.377-.164-7.2-2.079a2.529,2.529,0,0,1,.872-2.864c2.438-1.654,7.4-1.434,9.924-.2a4.309,4.309,0,0,1,2.108,2.976.737.737,0,0,0,.7.707c.965.019,1.93.005,2.9.006a.7.7,0,0,0,.759-.5A7.269,7.269,0,0,0,32.727,12.038Z" transform="translate(12.149 9.689)" fill="#8cc84b"/>
  </g>
</svg>
