<svg id="oracle-svgrepo-com" xmlns="http://www.w3.org/2000/svg" width="147.101" height="19.123" viewBox="0 0 147.101 19.123">
  <path id="Path_65475" data-name="Path 65475" d="M63.5,12.441h9.72l-5.14-8.269L58.652,19.123H54.359L65.833,1.164A2.711,2.711,0,0,1,68.085,0a2.661,2.661,0,0,1,2.207,1.134L81.811,19.123H77.518l-2.026-3.341H65.651L63.5,12.441ZM108.1,15.782V.181h-3.643V17.309a1.785,1.785,0,0,0,.529,1.27,1.861,1.861,0,0,0,1.33.544h16.614l2.147-3.341Zm-60.271-2.8a6.4,6.4,0,1,0,0-12.8H31.89V19.123h3.642V3.522H47.587a3.069,3.069,0,0,1,0,6.137l-10.27-.015,10.875,9.478h5.291l-7.317-6.137ZM9.472,19.123a9.471,9.471,0,1,1,0-18.941h11.01a9.471,9.471,0,0,1,0,18.941Zm10.765-3.341a6.13,6.13,0,1,0,0-12.26H9.716a6.13,6.13,0,1,0,0,12.26Zm69.178,3.341a9.471,9.471,0,1,1,0-18.941h13.076L100.36,3.522h-10.7a6.13,6.13,0,1,0,0,12.26h13.137l-2.147,3.341Zm44.55-3.341a6.122,6.122,0,0,1-5.9-4.459h15.57l2.146-3.341H128.069a6.139,6.139,0,0,1,5.9-4.459h10.688L146.814.181H133.723a9.471,9.471,0,1,0,0,18.941h11.232l2.146-3.341Z" fill="#ea1b22"/>
</svg>
