<svg width="225" height="265" viewBox="0 0 225 265" fill="none" xmlns="http://www.w3.org/2000/svg">
<g clip-path="url(#clip0_509_43)">
<path d="M63.8495 59.5798C63.5775 57.9285 61.2031 57.9285 60.9311 59.5798L60.0897 64.6878L54.9817 65.5292C53.3303 65.8012 53.3303 68.1756 54.9817 68.4476L60.0897 69.289L60.9311 74.397C61.2031 76.0483 63.5775 76.0483 63.8495 74.397L64.6908 69.289L69.7989 68.4476C71.4502 68.1756 71.4502 65.8012 69.7988 65.5292L64.6908 64.6878L63.8495 59.5798Z" fill="#E96F1C"/>
<path d="M63.8495 154.698C63.5775 153.047 61.2031 153.047 60.9311 154.698L60.0897 159.806L54.9817 160.647C53.3303 160.919 53.3303 163.294 54.9817 163.566L60.0897 164.407L60.9311 169.515C61.2031 171.167 63.5775 171.167 63.8495 169.515L64.6908 164.407L69.7989 163.566C71.4502 163.294 71.4502 160.919 69.7988 160.647L64.6908 159.806L63.8495 154.698Z" fill="#E96F1C"/>
<path d="M62.501 3V247.586" stroke="#E96F1C" stroke-width="1.12539"/>
<path d="M129.839 66.9602L-111.615 66.2351" stroke="#E96F1C" stroke-width="1.12539"/>
<path d="M129.839 162.243L-111.615 161.518" stroke="#E96F1C" stroke-width="1.12539"/>
<path d="M55.0848 76.5798C54.8128 74.9285 52.4384 74.9285 52.1664 76.5798L51.325 81.6878L46.217 82.5292C44.5657 82.8012 44.5657 85.1756 46.217 85.4476L51.325 86.289L52.1664 91.397C52.4384 93.0483 54.8128 93.0483 55.0848 91.397L55.9262 86.289L61.0342 85.4476C62.6855 85.1756 62.6855 82.8012 61.0342 82.5292L55.9262 81.6878L55.0848 76.5798Z" fill="#F2F5F5"/>
<path d="M158.85 76.5798C158.578 74.9285 156.203 74.9285 155.931 76.5798L155.09 81.6878L149.982 82.5292C148.331 82.8012 148.331 85.1756 149.982 85.4476L155.09 86.289L155.931 91.397C156.203 93.0483 158.578 93.0483 158.85 91.397L159.691 86.289L164.799 85.4476C166.45 85.1756 166.45 82.8012 164.799 82.5292L159.691 81.6878L158.85 76.5798Z" fill="#F2F5F5"/>
<path d="M158.85 171.698C158.578 170.047 156.203 170.047 155.931 171.698L155.09 176.806L149.982 177.647C148.331 177.919 148.331 180.294 149.982 180.566L155.09 181.407L155.931 186.515C156.203 188.167 158.578 188.167 158.85 186.515L159.691 181.407L164.799 180.566C166.45 180.294 166.45 177.919 164.799 177.647L159.691 176.806L158.85 171.698Z" fill="#F2F5F5"/>
<path d="M55.0848 171.698C54.8128 170.047 52.4384 170.047 52.1664 171.698L51.325 176.806L46.217 177.647C44.5657 177.919 44.5657 180.294 46.217 180.566L51.325 181.407L52.1664 186.515C52.4384 188.167 54.8128 188.167 55.0848 186.515L55.9262 181.407L61.0342 180.566C62.6855 180.294 62.6855 177.919 61.0342 177.647L55.9262 176.806L55.0848 171.698Z" fill="#F2F5F5"/>
<path d="M157.501 20V264.586" stroke="#F2F5F5" stroke-width="1.12539"/>
<path d="M53.9648 20V264.586" stroke="#F2F5F5" stroke-width="1.12539"/>
<path d="M224.839 83.9602L-16.6149 83.2351" stroke="#F2F5F5" stroke-width="1.12539"/>
<path d="M224.839 179.243L-16.6149 178.518" stroke="#F2F5F5" stroke-width="1.12539"/>
</g>
<defs>
<clipPath id="clip0_509_43">
<rect width="225" height="265" fill="white"/>
</clipPath>
</defs>
</svg>
