<svg xmlns="http://www.w3.org/2000/svg" xmlns:xlink="http://www.w3.org/1999/xlink" width="60" height="60" viewBox="0 0 60 60">
  <defs>
    <clipPath id="clip-path">
      <path id="Path_18658" data-name="Path 18658" d="M2,23.714c0-7.6,0-11.4,1.479-14.3A13.572,13.572,0,0,1,9.41,3.479C12.313,2,16.114,2,23.714,2H40.286c7.6,0,11.4,0,14.3,1.479A13.572,13.572,0,0,1,60.521,9.41C62,12.313,62,16.114,62,23.714V40.286c0,7.6,0,11.4-1.479,14.3a13.572,13.572,0,0,1-5.931,5.931C51.687,62,47.887,62,40.286,62H23.714c-7.6,0-11.4,0-14.3-1.479A13.572,13.572,0,0,1,3.479,54.59C2,51.687,2,47.887,2,40.286Z" fill="#300"/>
    </clipPath>
  </defs>
  <g id="adobe-illustrator-svgrepo-com" transform="translate(-2 -2)">
    <g id="Mask_Group_3649" data-name="Mask Group 3649" clip-path="url(#clip-path)">
      <g id="Layer_2_1_" transform="translate(2 2.75)">
        <g id="Surfaces">
          <g id="Photo_Surface">
            <g id="Outline_no_shadow">
              <path id="Path_18669" data-name="Path 18669" d="M10.625,0h38.75A10.616,10.616,0,0,1,60,10.625v37.25A10.616,10.616,0,0,1,49.375,58.5H10.625A10.616,10.616,0,0,1,0,47.875V10.625A10.616,10.616,0,0,1,10.625,0Z" fill="#001e36"/>
            </g>
          </g>
        </g>
        <g id="Outlined_Mnemonics_Logos">
          <g id="Ps">
            <path id="Path_18670" data-name="Path 18670" d="M13.5,41.025V15.3c0-.175.075-.275.25-.275.425,0,.825,0,1.4-.025.6-.025,1.225-.025,1.9-.05s1.4-.025,2.175-.05,1.525-.025,2.275-.025a14.7,14.7,0,0,1,5.15.775A8.928,8.928,0,0,1,30,17.7a7.96,7.96,0,0,1,1.825,2.85A9.569,9.569,0,0,1,32.4,23.8a8.938,8.938,0,0,1-1.5,5.325,8.565,8.565,0,0,1-4.025,3.05,16.2,16.2,0,0,1-5.625.85c-.6,0-1,0-1.25-.025s-.6-.025-1.075-.025V41a.311.311,0,0,1-.275.35H13.8C13.6,41.35,13.5,41.25,13.5,41.025ZM18.95,19.85v8.4c.35.025.675.05.975.05H21.25a9.338,9.338,0,0,0,2.875-.45,4.3,4.3,0,0,0,2.05-1.325,3.863,3.863,0,0,0,.775-2.575,4.115,4.115,0,0,0-.575-2.225,3.625,3.625,0,0,0-1.75-1.425,7.336,7.336,0,0,0-2.95-.5c-.65,0-1.225,0-1.7.025a5.724,5.724,0,0,0-1.025.025Z" fill="#31a8ff"/>
            <path id="Path_18671" data-name="Path 18671" d="M48,26.725a8.848,8.848,0,0,0-2.4-.85,13.179,13.179,0,0,0-2.8-.325,5.034,5.034,0,0,0-1.5.175,1.284,1.284,0,0,0-.775.5,1.325,1.325,0,0,0-.2.675,1.112,1.112,0,0,0,.25.65,2.821,2.821,0,0,0,.85.675c.575.3,1.175.575,1.775.825a18.108,18.108,0,0,1,3.85,1.825,5.817,5.817,0,0,1,1.975,2.075,5.4,5.4,0,0,1,.575,2.575,5.817,5.817,0,0,1-.975,3.325,6.265,6.265,0,0,1-2.8,2.225,11.455,11.455,0,0,1-4.525.8,17.221,17.221,0,0,1-3.4-.325,10.085,10.085,0,0,1-2.55-.8.492.492,0,0,1-.275-.475v-4.35a.271.271,0,0,1,.1-.225.19.19,0,0,1,.225.025,10.7,10.7,0,0,0,3.1,1.225,11.638,11.638,0,0,0,2.95.375,4.772,4.772,0,0,0,2.075-.35,1.161,1.161,0,0,0,.675-1.05,1.325,1.325,0,0,0-.6-1,10.6,10.6,0,0,0-2.45-1.175,15.3,15.3,0,0,1-3.55-1.8,6.473,6.473,0,0,1-1.9-2.125,5.364,5.364,0,0,1-.575-2.55,5.88,5.88,0,0,1,.85-3.025,6.162,6.162,0,0,1,2.625-2.3,9.7,9.7,0,0,1,4.425-.875,21.552,21.552,0,0,1,3.1.225,8.8,8.8,0,0,1,2.15.575.439.439,0,0,1,.25.225,1.255,1.255,0,0,1,.05.3v4.075a.308.308,0,0,1-.125.25A.666.666,0,0,1,48,26.725Z" fill="#31a8ff"/>
          </g>
        </g>
      </g>
    </g>
  </g>
</svg>
