<svg xmlns="http://www.w3.org/2000/svg" width="60" height="60" viewBox="0 0 60 60">
  <g id="php-svgrepo-com" transform="translate(-2 -2)">
    <circle id="Ellipse_3053" data-name="Ellipse 3053" cx="30" cy="30" r="30" transform="translate(2 2)" fill="#8892bf"/>
    <path id="Path_65352" data-name="Path 65352" d="M16.434,10h3.592l-1.015,5.4h3.227a6.116,6.116,0,0,1,3.956,1.187q1.327,1.13.781,4.295l-1.744,9.409H21.588L23.253,21.3A2.743,2.743,0,0,0,23.1,19.3q-.416-.593-1.8-.593l-2.889-.028L16.278,30.287H12.686Z" transform="translate(12.16 9.103)" fill="#fff"/>
    <path id="Path_65353" data-name="Path 65353" d="M8.722,12.524H15.7a5.2,5.2,0,0,1,4.451,1.921,6.886,6.886,0,0,1,.911,5.171,10.557,10.557,0,0,1-.807,2.939,8.784,8.784,0,0,1-1.666,2.6A5.758,5.758,0,0,1,15.8,27.019a11.866,11.866,0,0,1-3.071.4H9.607l-.989,5.368H5Zm1.484,11.7,1.556-8.448h.526q.287,0,.6-.028a10.8,10.8,0,0,1,3.462.424q1.405.452.937,3.419-.572,3.532-2.238,4.125a12.667,12.667,0,0,1-4.164.537h-.364A1.773,1.773,0,0,1,10.206,24.222Z" transform="translate(3.414 11.976)" fill="#fff" fill-rule="evenodd"/>
    <path id="Path_65354" data-name="Path 65354" d="M30.13,12.524H23.155L19.433,32.783h3.618l.989-5.368h3.123a11.865,11.865,0,0,0,3.071-.4,5.757,5.757,0,0,0,2.785-1.865,8.784,8.784,0,0,0,1.666-2.6,10.557,10.557,0,0,0,.807-2.939,6.885,6.885,0,0,0-.911-5.171A5.2,5.2,0,0,0,30.13,12.524Zm-3.935,3.249-1.556,8.448a1.773,1.773,0,0,0,.312.028h.364a12.667,12.667,0,0,0,4.164-.537q1.665-.593,2.238-4.125.469-2.967-.937-3.419a10.8,10.8,0,0,0-3.462-.424q-.312.028-.6.028Z" transform="translate(19.837 11.976)" fill="#fff" fill-rule="evenodd"/>
  </g>
</svg>
