<svg xmlns="http://www.w3.org/2000/svg" width="58.197" height="60" viewBox="0 0 58.197 60">
  <g id="postgresql-svgrepo-com" transform="translate(-0.297 -0.364)">
    <path id="Path_65470" data-name="Path 65470" d="M58.34,36.306a2.952,2.952,0,0,0-2.451-1.974,5.612,5.612,0,0,0-1.956.108,17.579,17.579,0,0,1-3.014.4A58.124,58.124,0,0,0,57.073,20.2c2.042-7.9.951-11.506-.324-13.135A17.656,17.656,0,0,0,42.513.366a25.234,25.234,0,0,0-7.4,1.037,27.578,27.578,0,0,0-4.328-.4,14.069,14.069,0,0,0-7.538,1.857,34.407,34.407,0,0,0-5.324-1.336c-5.205-.855-9.4-.189-12.469,1.979C1.739,6.131.016,10.692.335,17.061a77.88,77.88,0,0,0,3.013,14.01A48.386,48.386,0,0,0,6.592,39.35c1.6,3.034,3.315,4.821,5.238,5.462a5.149,5.149,0,0,0,5.1-1.1A4.458,4.458,0,0,0,18,44.63a7.131,7.131,0,0,0,2.022.852,10.862,10.862,0,0,0,7.07-.421c.013.367.023.718.031,1.021.014.492.027.973.045,1.424a24.944,24.944,0,0,0,.944,7.075c.034.091.079.23.127.378a8.518,8.518,0,0,0,2.123,3.74,6.333,6.333,0,0,0,4.479,1.665,10.066,10.066,0,0,0,2.094-.233c2.238-.48,4.779-1.21,6.618-3.828,1.738-2.475,2.583-6.2,2.736-12.075.02-.166.038-.324.056-.476l.036-.31.409.036.106.007a16.2,16.2,0,0,0,6.778-1.174c1.352-.628,5.686-2.916,4.666-6" transform="translate(0 0)"/>
    <path id="Path_65471" data-name="Path 65471" d="M62.976,45.441c-6.777,1.4-7.243-.9-7.243-.9C62.888,33.927,65.88,20.45,63.3,17.151c-7.042-9-19.232-4.742-19.436-4.632l-.065.012a24.169,24.169,0,0,0-4.522-.471A11.167,11.167,0,0,0,32.118,14.2S10.371,5.244,11.383,25.47c.215,4.3,6.167,32.558,13.267,24.023,2.595-3.121,5.1-5.759,5.1-5.759a6.582,6.582,0,0,0,4.3,1.1l.121-.1a4.736,4.736,0,0,0,.049,1.215c-1.829,2.043-1.291,2.4-4.948,3.155-3.7.762-1.526,2.12-.107,2.475a7.516,7.516,0,0,0,8.389-2.725l-.107.43c.716.574,1.22,3.733,1.135,6.6s-.141,4.83.424,6.366,1.127,4.992,5.934,3.962c4.016-.861,6.1-3.091,6.387-6.811.205-2.645.67-2.254.7-4.619l.373-1.119c.43-3.585.068-4.742,2.542-4.2l.6.053a13.7,13.7,0,0,0,5.6-.943c3.012-1.4,4.8-3.732,1.828-3.119h0" transform="translate(-8.533 -8.535)" fill="#336791"/>
    <path id="Path_65472" data-name="Path 65472" d="M102.426,81.411a2.1,2.1,0,0,0-1.444.205.529.529,0,0,0-.219.352,1.03,1.03,0,0,0,.25.674,1.888,1.888,0,0,0,1.2.747,1.4,1.4,0,0,0,.192.013,1.553,1.553,0,0,0,1.471-1c.074-.532-.7-.887-1.448-.991" transform="translate(-77.569 -62.552)" fill="#fff"/>
    <path id="Path_65473" data-name="Path 65473" d="M187.245,80h0c-.058-.417-.8-.536-1.505-.438s-1.386.416-1.329.834a1.429,1.429,0,0,0,1.328.88,1.282,1.282,0,0,0,.178-.012,1.71,1.71,0,0,0,.966-.529,1.063,1.063,0,0,0,.363-.735" transform="translate(-142.155 -61.129)" fill="#fff"/>
    <path id="Path_65474" data-name="Path 65474" d="M62.223,42.154c-.258-.781-1.09-1.033-2.472-.747-4.1.847-5.572.26-6.055-.1A56.418,56.418,0,0,0,60.925,25.1,30.8,30.8,0,0,0,62,18.131,7.528,7.528,0,0,0,60.9,13.421,16.034,16.034,0,0,0,47.942,7.368,22.209,22.209,0,0,0,40.45,8.549a18.678,18.678,0,0,0-4.216-.541A12.182,12.182,0,0,0,29.009,10,32.266,32.266,0,0,0,23.138,8.46C18.381,7.694,14.6,8.274,11.9,10.185,8.686,12.465,7.2,16.541,7.488,22.3a76.036,76.036,0,0,0,2.943,13.6c2.293,7.512,4.785,11.764,7.408,12.639a3.318,3.318,0,0,0,1.051.174,4.392,4.392,0,0,0,3.35-1.9c2.027-2.439,3.919-4.482,4.617-5.224a7.439,7.439,0,0,0,3.322.893c0,.03.005.061.008.091-.232.276-.423.517-.586.724-.8,1.019-.97,1.231-3.553,1.763-.735.152-2.687.554-2.715,1.922-.031,1.495,2.307,2.123,2.574,2.189a11.022,11.022,0,0,0,2.676.347,7.788,7.788,0,0,0,5.359-2c-.045,5.329.177,10.58.817,12.18.524,1.31,1.8,4.511,5.848,4.511a9.381,9.381,0,0,0,1.965-.223c4.221-.9,6.053-2.77,6.762-6.883.379-2.2,1.03-7.446,1.337-10.261a8.27,8.27,0,0,0,2.378.294,14.153,14.153,0,0,0,5.4-1.029c1.525-.708,4.277-2.446,3.778-3.956ZM52.173,23.131a17.074,17.074,0,0,1-.25,2.373,21.918,21.918,0,0,0-.3,2.786,21.124,21.124,0,0,0,.221,3.15c.252,2.1.512,4.264-.491,6.4a8.307,8.307,0,0,1-.444-.914c-.125-.3-.4-.788-.77-1.459-1.458-2.615-4.873-8.739-3.125-11.238.521-.744,1.842-1.509,5.159-1.1ZM48.152,9.051a14.181,14.181,0,0,1,11.43,5.405c2.088,2.669-.211,14.812-6.868,25.287l-.2-.255-.084-.105c1.72-2.841,1.384-5.652,1.084-8.144a19.56,19.56,0,0,1-.21-2.9,20.507,20.507,0,0,1,.281-2.584,16.318,16.318,0,0,0,.263-3.2,1.325,1.325,0,0,0,.028-.451,17.96,17.96,0,0,0-4.1-7.7,18.453,18.453,0,0,0-6.511-4.9,21.953,21.953,0,0,1,4.886-.459Zm-27.2,36.693c-1.344,1.617-2.273,1.307-2.578,1.205-1.99-.664-4.3-4.868-6.333-11.536a75.336,75.336,0,0,1-2.872-13.2c-.257-5.145.99-8.731,3.707-10.658,4.422-3.136,11.692-1.259,14.613-.307-.042.041-.086.08-.127.122-4.793,4.841-4.68,13.112-4.668,13.618,0,.2.016.471.038.851a34.238,34.238,0,0,1-.174,6.912,8.741,8.741,0,0,0,2.3,7.317q.287.3.6.562c-.821.88-2.606,2.825-4.506,5.11Zm5.122-6.835a7.072,7.072,0,0,1-1.853-5.922,35.782,35.782,0,0,0,.187-7.244c-.012-.2-.023-.38-.029-.521.7-.621,3.945-2.36,6.26-1.829a2.547,2.547,0,0,1,1.967,2.2c1.385,6.4.183,9.073-.782,11.218-.2.442-.387.86-.547,1.292l-.124.334a21.9,21.9,0,0,0-.79,2.375,5.976,5.976,0,0,1-4.288-1.9Zm.243,8.637a3.713,3.713,0,0,1-1.12-.482,5.448,5.448,0,0,1,1.194-.355c3.039-.626,3.509-1.067,4.534-2.369.235-.3.5-.637.87-1.049h0c.549-.615.8-.511,1.257-.322a1.778,1.778,0,0,1,.875,1.125,1.253,1.253,0,0,1-.107,1.053c-2.141,3-5.261,2.959-7.5,2.4Zm15.906,14.8c-3.718.8-5.035-1.1-5.9-3.269-.56-1.4-.835-7.714-.64-14.686a.839.839,0,0,0-.036-.267,3.531,3.531,0,0,0-.1-.493,3.4,3.4,0,0,0-1.847-2.215,2.6,2.6,0,0,0-1.7-.206,20.54,20.54,0,0,1,.732-2.191l.125-.336c.141-.379.318-.772.5-1.187,1.01-2.244,2.394-5.318.892-12.262-.562-2.6-2.441-3.871-5.288-3.576a12.2,12.2,0,0,0-4.047,1.26c-.167.085-.321.167-.464.247.217-2.621,1.039-7.518,4.111-10.617a10.093,10.093,0,0,1,7.649-2.862,16.215,16.215,0,0,1,12.389,5.92,18.805,18.805,0,0,1,3.39,5.813c-3.134-.319-5.266.3-6.347,1.845-2.351,3.361,1.286,9.884,3.034,13.018.321.574.6,1.071.684,1.282A11.64,11.64,0,0,0,51.2,40.538c.165.206.325.406.447.58-.949.274-2.655.906-2.5,4.067-.125,1.586-1.017,9.012-1.469,11.635-.6,3.466-1.873,4.757-5.459,5.526Zm15.519-17.76a12.24,12.24,0,0,1-4.138.861,5.189,5.189,0,0,1-2.776-.358c-.1-1.97.637-2.176,1.413-2.393.122-.034.241-.068.356-.108a2.9,2.9,0,0,0,.235.172c1.37.9,3.814,1,7.263.29l.038-.008a9.288,9.288,0,0,1-2.39,1.543Z" transform="translate(-5.525 -5.407)" fill="#fff"/>
  </g>
</svg>
