<svg xmlns="http://www.w3.org/2000/svg" width="70.27" height="60" viewBox="0 0 70.27 60">
  <g id="redis-svgrepo-com" transform="translate(0 -0.583)">
    <path id="Path_67072" data-name="Path 67072" d="M67.516,123.7c-3.75,1.955-23.176,9.942-27.312,12.1s-6.433,2.136-9.7.574S6.564,126.461,2.84,124.681c-1.861-.89-2.84-1.64-2.84-2.35v-7.1s26.913-5.859,31.259-7.418,5.852-1.615,9.55-.261,25.807,5.344,29.461,6.682c0,0,0,6.344,0,7,0,.7-.843,1.472-2.751,2.467" transform="translate(0 -76.905)" fill="#912626"/>
    <path id="Path_67073" data-name="Path 67073" d="M67.515,101.614c-3.75,1.954-23.175,9.941-27.311,12.1s-6.433,2.136-9.7.574S6.564,104.372,2.841,102.593s-3.8-3.005-.144-4.437,24.217-9.5,28.562-11.058,5.852-1.615,9.549-.26,23.007,9.04,26.661,10.378,3.8,2.443.045,4.4" transform="translate(0 -61.878)" fill="#c6302b"/>
    <path id="Path_67074" data-name="Path 67074" d="M67.516,81.833c-3.75,1.955-23.176,9.942-27.312,12.1s-6.433,2.135-9.7.573S6.564,84.592,2.84,82.812C.979,81.922,0,81.173,0,80.463v-7.1S26.913,67.5,31.259,65.942s5.852-1.615,9.55-.261,25.807,5.343,29.461,6.682c0,0,0,6.344,0,7,0,.7-.843,1.472-2.751,2.467" transform="translate(0 -46.529)" fill="#912626"/>
    <path id="Path_67075" data-name="Path 67075" d="M67.515,59.745c-3.75,1.954-23.175,9.941-27.311,12.1s-6.433,2.135-9.7.573S6.564,62.5,2.841,60.725s-3.8-3-.144-4.438,24.217-9.5,28.562-11.057,5.852-1.615,9.549-.26,23.007,9.04,26.661,10.378,3.8,2.443.045,4.4h0" transform="translate(0 -31.502)" fill="#c6302b"/>
    <path id="Path_67076" data-name="Path 67076" d="M67.516,38.413c-3.75,1.955-23.176,9.942-27.312,12.1s-6.433,2.135-9.7.573S6.564,41.172,2.84,39.393C.979,38.5,0,37.753,0,37.044v-7.1s26.913-5.859,31.259-7.417,5.852-1.615,9.55-.261,25.807,5.343,29.461,6.682c0,0,0,6.344,0,7,0,.7-.843,1.472-2.751,2.466" transform="translate(0 -15.028)" fill="#912626"/>
    <path id="Path_67077" data-name="Path 67077" d="M67.515,16.324c-3.75,1.954-23.175,9.942-27.311,12.1s-6.433,2.135-9.7.573S6.564,19.084,2.841,17.3-.961,14.3,2.7,12.866s24.217-9.5,28.562-11.057,5.852-1.615,9.549-.26,23.007,9.04,26.661,10.379,3.8,2.442.045,4.4" transform="translate(0)" fill="#c6302b"/>
    <path id="Path_67078" data-name="Path 67078" d="M115.528,19.183l-6.041.627-1.353,3.254-2.184-3.631-6.976-.627,5.205-1.877-1.562-2.882,4.874,1.906,4.594-1.5-1.242,2.98,4.685,1.754" transform="translate(-71.806 -9.768)" fill="#fff"/>
    <path id="Path_67079" data-name="Path 67079" d="M101.23,71.36,89.955,66.683l16.157-2.48L101.23,71.36" transform="translate(-65.263 -46.157)" fill="#fff"/>
    <path id="Path_67080" data-name="Path 67080" d="M51.257,39.347c4.769,0,8.636,1.5,8.636,3.347s-3.866,3.347-8.636,3.347-8.636-1.5-8.636-3.347,3.866-3.347,8.636-3.347" transform="translate(-30.922 -28.123)" fill="#fff"/>
    <path id="Path_67081" data-name="Path 67081" d="M185.3,36l9.562,3.779L185.3,43.551,185.3,36" transform="translate(-134.433 -25.693)" fill="#621b1c"/>
    <path id="Path_67082" data-name="Path 67082" d="M146.755,40.182,157.334,36l.008,7.554-1.037.406-9.55-3.775" transform="translate(-106.472 -25.693)" fill="#9a2928"/>
  </g>
</svg>
