<svg xmlns="http://www.w3.org/2000/svg" xmlns:xlink="http://www.w3.org/1999/xlink" width="101.94" height="60.5" viewBox="0 0 101.94 60.5">
  <defs>
    <linearGradient id="linear-gradient" x1="-0.028" y1="0.32" x2="1" y2="0.676" gradientUnits="objectBoundingBox">
      <stop offset="0" stop-color="#2298bd"/>
      <stop offset="1" stop-color="#0ed7b5"/>
    </linearGradient>
  </defs>
  <path id="Path_65478" data-name="Path 65478" d="M50.97,0Q30.582,0,25.485,20.166,33.13,10.083,43.324,12.6c3.878.959,6.649,3.741,9.717,6.821,5,5.017,10.781,10.824,23.414,10.824q20.388,0,25.485-20.167Q94.3,20.167,84.1,17.646c-3.878-.959-6.649-3.741-9.717-6.821C69.386,5.807,63.6,0,50.97,0ZM25.485,30.25Q5.1,30.25,0,50.416q7.645-10.083,17.839-7.562c3.878.959,6.649,3.741,9.717,6.821,5,5.017,10.781,10.824,23.414,10.824q20.388,0,25.485-20.166Q68.809,50.416,58.615,47.9c-3.878-.959-6.649-3.741-9.717-6.821C43.9,36.057,38.118,30.25,25.485,30.25Z" fill="url(#linear-gradient)"/>
</svg>
