<svg xmlns="http://www.w3.org/2000/svg" width="60" height="60" viewBox="0 0 60 60">
  <g id="typescript-official-svgrepo-com" transform="translate(-2 -2)">
    <rect id="Rectangle_53214" data-name="Rectangle 53214" width="60" height="60" rx="1.312" transform="translate(2 2)" fill="#3178c6"/>
    <path id="Path_65336" data-name="Path 65336" d="M32.31,35.632v6.574a13.912,13.912,0,0,0,3.78,1.232,24.77,24.77,0,0,0,4.6.411,21.36,21.36,0,0,0,4.474-.452,10.95,10.95,0,0,0,3.718-1.5,7.59,7.59,0,0,0,2.531-2.713,9.576,9.576,0,0,0,.4-7.273,7.3,7.3,0,0,0-1.536-2.394,11.22,11.22,0,0,0-2.406-1.879A25.773,25.773,0,0,0,44.7,26.066q-1.286-.534-2.314-1.037A11.786,11.786,0,0,1,40.646,24a4.476,4.476,0,0,1-1.106-1.11,2.338,2.338,0,0,1-.388-1.324,2.226,2.226,0,0,1,.347-1.224,3,3,0,0,1,.984-.934,5.226,5.226,0,0,1,1.556-.606,9.023,9.023,0,0,1,2.049-.214,12.733,12.733,0,0,1,1.731.124,13.485,13.485,0,0,1,1.834.379,12.844,12.844,0,0,1,1.791.643,9.979,9.979,0,0,1,1.609.9V14.505a16.091,16.091,0,0,0-3.268-.857,26.628,26.628,0,0,0-4.071-.276,18.786,18.786,0,0,0-4.423.5,11.226,11.226,0,0,0-3.677,1.571,7.832,7.832,0,0,0-2.509,2.724,8,8,0,0,0-.924,3.954,7.689,7.689,0,0,0,1.691,5.014A12.857,12.857,0,0,0,39,30.649q1.35.557,2.518,1.091a13.838,13.838,0,0,1,2.019,1.108A5.278,5.278,0,0,1,44.882,34.1a2.571,2.571,0,0,1,.493,1.541,2.357,2.357,0,0,1-.309,1.183,2.719,2.719,0,0,1-.932.945,5.1,5.1,0,0,1-1.556.626,9.379,9.379,0,0,1-2.181.225,12.371,12.371,0,0,1-4.219-.75A12.587,12.587,0,0,1,32.31,35.632ZM21.266,19.264h8.571V13.849H5.938v5.415h8.533V43.38h6.795Z" transform="translate(4.501 12.995)" fill="#fff" fill-rule="evenodd"/>
  </g>
</svg>
