<svg xmlns="http://www.w3.org/2000/svg" xmlns:xlink="http://www.w3.org/1999/xlink" width="60" height="60" viewBox="0 0 60 60">
  <defs>
    <clipPath id="clip-path">
      <path id="Path_18658" data-name="Path 18658" d="M2,23.714c0-7.6,0-11.4,1.479-14.3A13.572,13.572,0,0,1,9.41,3.479C12.313,2,16.114,2,23.714,2H40.286c7.6,0,11.4,0,14.3,1.479A13.572,13.572,0,0,1,60.521,9.41C62,12.313,62,16.114,62,23.714V40.286c0,7.6,0,11.4-1.479,14.3a13.572,13.572,0,0,1-5.931,5.931C51.687,62,47.887,62,40.286,62H23.714c-7.6,0-11.4,0-14.3-1.479A13.572,13.572,0,0,1,3.479,54.59C2,51.687,2,47.887,2,40.286Z" fill="#300"/>
    </clipPath>
  </defs>
  <g id="adobe-illustrator-svgrepo-com" transform="translate(-2 -2)">
    <g id="Mask_Group_3648" data-name="Mask Group 3648" clip-path="url(#clip-path)">
      <g id="adobe-xd-1-logo-svgrepo-com" transform="translate(2 2.75)">
        <path id="Path_18666" data-name="Path 18666" d="M49.375,58.5H10.625A10.615,10.615,0,0,1,0,47.875V10.625A10.615,10.615,0,0,1,10.625,0h38.75A10.615,10.615,0,0,1,60,10.625v37.25A10.615,10.615,0,0,1,49.375,58.5Z" fill="#ff26be"/>
        <path id="Path_18667" data-name="Path 18667" d="M48.425,56H11.575A9.09,9.09,0,0,1,2.5,46.925V11.575A9.09,9.09,0,0,1,11.575,2.5H48.4a9.073,9.073,0,0,1,9.074,9.074V46.9a9.06,9.06,0,0,1-9.05,9.1Z" fill="#2e001f"/>
        <path id="Path_18668" data-name="Path 18668" d="M23.724,27.374l7,13.45c.125.2.05.4-.151.4H26.222A.49.49,0,0,1,25.7,40.9c-1.6-3.3-3.226-6.6-4.9-10.15h-.05c-1.5,3.35-3.151,6.876-4.75,10.176a.482.482,0,0,1-.451.276H11.424c-.25,0-.276-.2-.149-.35L18.125,27.8,11.5,14.6a.2.2,0,0,1,.149-.35h4.3c.25,0,.35.05.449.276,1.574,3.3,3.175,6.7,4.675,10.025h.05c1.45-3.3,3.05-6.725,4.6-10,.125-.2.2-.324.451-.324H30.2c.2,0,.276.151.151.35Zm8.227,4.075c0-5.825,3.876-10.375,10.025-10.375a11.021,11.021,0,0,1,1.3.05V14.5a.249.249,0,0,1,.25-.25h3.95c.2,0,.25.074.25.2V37.4a17.855,17.855,0,0,0,.125,2.45c0,.151-.05.2-.2.276a14.883,14.883,0,0,1-6.4,1.45c-5.426.022-9.3-3.326-9.3-10.128Zm11.323-6.4a3.758,3.758,0,0,0-1.45-.25c-3.151,0-5.35,2.424-5.35,6.451,0,4.6,2.251,6.451,5.076,6.451a4.687,4.687,0,0,0,1.726-.276V25.051Z" fill="#ffd9f2"/>
      </g>
    </g>
  </g>
</svg>
